<?xml version="1.0" encoding="UTF-8"?>
<svg xmlns="http://www.w3.org/2000/svg" width="1254" height="1020" viewBox="0 0 1254 1020">
<rect width="1254" height="1020" fill="#ffffff"/>
<text x="36.0" y="24.0" font-family="'Segoe UI', 'Helvetica Neue', Arial, sans-serif" font-size="16" font-weight="bold" fill="#1f2328" text-anchor="start">Аудиоэтикетка+ с подсветкой (200-003) — схема подключения</text>
<polyline points="848.0,900.0 836.0,900.0 836.0,769.0 848.0,769.0" fill="none" stroke="#7b8794" stroke-width="7" stroke-linejoin="round" stroke-linecap="round"/>
<polyline points="896.0,887.0 880.0,887.0 848.0,900.0" fill="none" stroke="#e23b3b" stroke-width="2.6" stroke-linejoin="round" stroke-linecap="round"/>
<circle cx="896.0" cy="887.0" r="3.6" fill="#e23b3b" stroke="#ffffff" stroke-width="1"/>
<polyline points="896.0,756.0 880.0,756.0 848.0,769.0" fill="none" stroke="#e23b3b" stroke-width="2.6" stroke-linejoin="round" stroke-linecap="round"/>
<circle cx="896.0" cy="756.0" r="3.6" fill="#e23b3b" stroke="#ffffff" stroke-width="1"/>
<polyline points="896.0,913.0 880.0,913.0 848.0,900.0" fill="none" stroke="#3a3a3a" stroke-width="2.6" stroke-linejoin="round" stroke-linecap="round"/>
<circle cx="896.0" cy="913.0" r="3.6" fill="#3a3a3a" stroke="#ffffff" stroke-width="1"/>
<polyline points="896.0,782.0 880.0,782.0 848.0,769.0" fill="none" stroke="#3a3a3a" stroke-width="2.6" stroke-linejoin="round" stroke-linecap="round"/>
<circle cx="896.0" cy="782.0" r="3.6" fill="#3a3a3a" stroke="#ffffff" stroke-width="1"/>
<circle cx="836.0" cy="834.5" r="12.5" fill="#ffffff" stroke="#222" stroke-width="1.7"/>
<text x="836.0" y="839.0" font-family="'Segoe UI', 'Helvetica Neue', Arial, sans-serif" font-size="13" font-weight="bold" fill="#1f2328" text-anchor="middle">1</text>
<polyline points="848.0,143.0 463.0,143.0 463.0,113.0 384.0,113.0" fill="none" stroke="#7b8794" stroke-width="7" stroke-linejoin="round" stroke-linecap="round"/>
<polyline points="896.0,130.0 880.0,130.0 848.0,143.0" fill="none" stroke="#e23b3b" stroke-width="2.6" stroke-linejoin="round" stroke-linecap="round"/>
<circle cx="896.0" cy="130.0" r="3.6" fill="#e23b3b" stroke="#ffffff" stroke-width="1"/>
<polyline points="336.0,100.0 352.0,100.0 384.0,113.0" fill="none" stroke="#e23b3b" stroke-width="2.6" stroke-linejoin="round" stroke-linecap="round"/>
<circle cx="336.0" cy="100.0" r="3.6" fill="#e23b3b" stroke="#ffffff" stroke-width="1"/>
<polyline points="896.0,156.0 880.0,156.0 848.0,143.0" fill="none" stroke="#2f6fdb" stroke-width="2.6" stroke-linejoin="round" stroke-linecap="round"/>
<circle cx="896.0" cy="156.0" r="3.6" fill="#2f6fdb" stroke="#ffffff" stroke-width="1"/>
<polyline points="336.0,126.0 352.0,126.0 384.0,113.0" fill="none" stroke="#2f6fdb" stroke-width="2.6" stroke-linejoin="round" stroke-linecap="round"/>
<circle cx="336.0" cy="126.0" r="3.6" fill="#2f6fdb" stroke="#ffffff" stroke-width="1"/>
<circle cx="463.0" cy="128.0" r="12.5" fill="#ffffff" stroke="#222" stroke-width="1.7"/>
<text x="463.0" y="132.5" font-family="'Segoe UI', 'Helvetica Neue', Arial, sans-serif" font-size="13" font-weight="bold" fill="#1f2328" text-anchor="middle">2</text>
<polyline points="712.0,345.0 497.0,345.0 497.0,278.0 384.0,278.0" fill="none" stroke="#7b8794" stroke-width="7" stroke-linejoin="round" stroke-linecap="round"/>
<polyline points="760.0,306.0 744.0,306.0 712.0,345.0" fill="none" stroke="#e23b3b" stroke-width="2.6" stroke-linejoin="round" stroke-linecap="round"/>
<circle cx="760.0" cy="306.0" r="3.6" fill="#e23b3b" stroke="#ffffff" stroke-width="1"/>
<polyline points="336.0,239.0 352.0,239.0 384.0,278.0" fill="none" stroke="#e23b3b" stroke-width="2.6" stroke-linejoin="round" stroke-linecap="round"/>
<circle cx="336.0" cy="239.0" r="3.6" fill="#e23b3b" stroke="#ffffff" stroke-width="1"/>
<polyline points="760.0,332.0 744.0,332.0 712.0,345.0" fill="none" stroke="#2ca02c" stroke-width="2.6" stroke-linejoin="round" stroke-linecap="round"/>
<circle cx="760.0" cy="332.0" r="3.6" fill="#2ca02c" stroke="#ffffff" stroke-width="1"/>
<polyline points="336.0,265.0 352.0,265.0 384.0,278.0" fill="none" stroke="#2ca02c" stroke-width="2.6" stroke-linejoin="round" stroke-linecap="round"/>
<circle cx="336.0" cy="265.0" r="3.6" fill="#2ca02c" stroke="#ffffff" stroke-width="1"/>
<polyline points="760.0,358.0 744.0,358.0 712.0,345.0" fill="none" stroke="#e6b400" stroke-width="2.6" stroke-linejoin="round" stroke-linecap="round"/>
<circle cx="760.0" cy="358.0" r="3.6" fill="#e6b400" stroke="#ffffff" stroke-width="1"/>
<polyline points="336.0,291.0 352.0,291.0 384.0,278.0" fill="none" stroke="#e6b400" stroke-width="2.6" stroke-linejoin="round" stroke-linecap="round"/>
<circle cx="336.0" cy="291.0" r="3.6" fill="#e6b400" stroke="#ffffff" stroke-width="1"/>
<polyline points="760.0,384.0 744.0,384.0 712.0,345.0" fill="none" stroke="#3a3a3a" stroke-width="2.6" stroke-linejoin="round" stroke-linecap="round"/>
<circle cx="760.0" cy="384.0" r="3.6" fill="#3a3a3a" stroke="#ffffff" stroke-width="1"/>
<polyline points="336.0,317.0 352.0,317.0 384.0,278.0" fill="none" stroke="#3a3a3a" stroke-width="2.6" stroke-linejoin="round" stroke-linecap="round"/>
<circle cx="336.0" cy="317.0" r="3.6" fill="#3a3a3a" stroke="#ffffff" stroke-width="1"/>
<circle cx="497.0" cy="311.5" r="12.5" fill="#ffffff" stroke="#222" stroke-width="1.7"/>
<text x="497.0" y="316.0" font-family="'Segoe UI', 'Helvetica Neue', Arial, sans-serif" font-size="13" font-weight="bold" fill="#1f2328" text-anchor="middle">3</text>
<polyline points="848.0,457.0 531.0,457.0 531.0,463.0 384.0,463.0" fill="none" stroke="#7b8794" stroke-width="7" stroke-linejoin="round" stroke-linecap="round"/>
<polyline points="896.0,418.0 880.0,418.0 848.0,457.0" fill="none" stroke="#e23b3b" stroke-width="2.6" stroke-linejoin="round" stroke-linecap="round"/>
<circle cx="896.0" cy="418.0" r="3.6" fill="#e23b3b" stroke="#ffffff" stroke-width="1"/>
<polyline points="336.0,424.0 352.0,424.0 384.0,463.0" fill="none" stroke="#e23b3b" stroke-width="2.6" stroke-linejoin="round" stroke-linecap="round"/>
<circle cx="336.0" cy="424.0" r="3.6" fill="#e23b3b" stroke="#ffffff" stroke-width="1"/>
<polyline points="896.0,444.0 880.0,444.0 848.0,457.0" fill="none" stroke="#3a3a3a" stroke-width="2.6" stroke-linejoin="round" stroke-linecap="round"/>
<circle cx="896.0" cy="444.0" r="3.6" fill="#3a3a3a" stroke="#ffffff" stroke-width="1"/>
<polyline points="336.0,450.0 352.0,450.0 384.0,463.0" fill="none" stroke="#3a3a3a" stroke-width="2.6" stroke-linejoin="round" stroke-linecap="round"/>
<circle cx="336.0" cy="450.0" r="3.6" fill="#3a3a3a" stroke="#ffffff" stroke-width="1"/>
<polyline points="896.0,496.0 880.0,496.0 848.0,457.0" fill="none" stroke="#2f6fdb" stroke-width="2.6" stroke-linejoin="round" stroke-linecap="round"/>
<circle cx="896.0" cy="496.0" r="3.6" fill="#2f6fdb" stroke="#ffffff" stroke-width="1"/>
<polyline points="336.0,476.0 352.0,476.0 384.0,463.0" fill="none" stroke="#2f6fdb" stroke-width="2.6" stroke-linejoin="round" stroke-linecap="round"/>
<circle cx="336.0" cy="476.0" r="3.6" fill="#2f6fdb" stroke="#ffffff" stroke-width="1"/>
<polyline points="896.0,470.0 880.0,470.0 848.0,457.0" fill="none" stroke="#3a3a3a" stroke-width="2.6" stroke-linejoin="round" stroke-linecap="round"/>
<circle cx="896.0" cy="470.0" r="3.6" fill="#3a3a3a" stroke="#ffffff" stroke-width="1"/>
<polyline points="336.0,502.0 352.0,502.0 384.0,463.0" fill="none" stroke="#3a3a3a" stroke-width="2.6" stroke-linejoin="round" stroke-linecap="round"/>
<circle cx="336.0" cy="502.0" r="3.6" fill="#3a3a3a" stroke="#ffffff" stroke-width="1"/>
<circle cx="531.0" cy="460.0" r="12.5" fill="#ffffff" stroke="#222" stroke-width="1.7"/>
<text x="531.0" y="464.5" font-family="'Segoe UI', 'Helvetica Neue', Arial, sans-serif" font-size="13" font-weight="bold" fill="#1f2328" text-anchor="middle">4</text>
<polyline points="848.0,569.0 565.0,569.0 565.0,648.0 384.0,648.0" fill="none" stroke="#7b8794" stroke-width="7" stroke-linejoin="round" stroke-linecap="round"/>
<polyline points="896.0,530.0 880.0,530.0 848.0,569.0" fill="none" stroke="#e23b3b" stroke-width="2.6" stroke-linejoin="round" stroke-linecap="round"/>
<circle cx="896.0" cy="530.0" r="3.6" fill="#e23b3b" stroke="#ffffff" stroke-width="1"/>
<polyline points="336.0,609.0 352.0,609.0 384.0,648.0" fill="none" stroke="#e23b3b" stroke-width="2.6" stroke-linejoin="round" stroke-linecap="round"/>
<circle cx="336.0" cy="609.0" r="3.6" fill="#e23b3b" stroke="#ffffff" stroke-width="1"/>
<polyline points="896.0,556.0 880.0,556.0 848.0,569.0" fill="none" stroke="#3a3a3a" stroke-width="2.6" stroke-linejoin="round" stroke-linecap="round"/>
<circle cx="896.0" cy="556.0" r="3.6" fill="#3a3a3a" stroke="#ffffff" stroke-width="1"/>
<polyline points="336.0,635.0 352.0,635.0 384.0,648.0" fill="none" stroke="#3a3a3a" stroke-width="2.6" stroke-linejoin="round" stroke-linecap="round"/>
<circle cx="336.0" cy="635.0" r="3.6" fill="#3a3a3a" stroke="#ffffff" stroke-width="1"/>
<polyline points="896.0,608.0 880.0,608.0 848.0,569.0" fill="none" stroke="#2f6fdb" stroke-width="2.6" stroke-linejoin="round" stroke-linecap="round"/>
<circle cx="896.0" cy="608.0" r="3.6" fill="#2f6fdb" stroke="#ffffff" stroke-width="1"/>
<polyline points="336.0,661.0 352.0,661.0 384.0,648.0" fill="none" stroke="#2f6fdb" stroke-width="2.6" stroke-linejoin="round" stroke-linecap="round"/>
<circle cx="336.0" cy="661.0" r="3.6" fill="#2f6fdb" stroke="#ffffff" stroke-width="1"/>
<polyline points="896.0,582.0 880.0,582.0 848.0,569.0" fill="none" stroke="#3a3a3a" stroke-width="2.6" stroke-linejoin="round" stroke-linecap="round"/>
<circle cx="896.0" cy="582.0" r="3.6" fill="#3a3a3a" stroke="#ffffff" stroke-width="1"/>
<polyline points="336.0,687.0 352.0,687.0 384.0,648.0" fill="none" stroke="#3a3a3a" stroke-width="2.6" stroke-linejoin="round" stroke-linecap="round"/>
<circle cx="336.0" cy="687.0" r="3.6" fill="#3a3a3a" stroke="#ffffff" stroke-width="1"/>
<circle cx="565.0" cy="608.5" r="12.5" fill="#ffffff" stroke="#222" stroke-width="1.7"/>
<text x="565.0" y="613.0" font-family="'Segoe UI', 'Helvetica Neue', Arial, sans-serif" font-size="13" font-weight="bold" fill="#1f2328" text-anchor="middle">5</text>
<polyline points="848.0,681.0 599.0,681.0 599.0,833.0 384.0,833.0" fill="none" stroke="#7b8794" stroke-width="7" stroke-linejoin="round" stroke-linecap="round"/>
<polyline points="896.0,642.0 880.0,642.0 848.0,681.0" fill="none" stroke="#e23b3b" stroke-width="2.6" stroke-linejoin="round" stroke-linecap="round"/>
<circle cx="896.0" cy="642.0" r="3.6" fill="#e23b3b" stroke="#ffffff" stroke-width="1"/>
<polyline points="336.0,794.0 352.0,794.0 384.0,833.0" fill="none" stroke="#e23b3b" stroke-width="2.6" stroke-linejoin="round" stroke-linecap="round"/>
<circle cx="336.0" cy="794.0" r="3.6" fill="#e23b3b" stroke="#ffffff" stroke-width="1"/>
<polyline points="896.0,668.0 880.0,668.0 848.0,681.0" fill="none" stroke="#3a3a3a" stroke-width="2.6" stroke-linejoin="round" stroke-linecap="round"/>
<circle cx="896.0" cy="668.0" r="3.6" fill="#3a3a3a" stroke="#ffffff" stroke-width="1"/>
<polyline points="336.0,820.0 352.0,820.0 384.0,833.0" fill="none" stroke="#3a3a3a" stroke-width="2.6" stroke-linejoin="round" stroke-linecap="round"/>
<circle cx="336.0" cy="820.0" r="3.6" fill="#3a3a3a" stroke="#ffffff" stroke-width="1"/>
<polyline points="896.0,720.0 880.0,720.0 848.0,681.0" fill="none" stroke="#2f6fdb" stroke-width="2.6" stroke-linejoin="round" stroke-linecap="round"/>
<circle cx="896.0" cy="720.0" r="3.6" fill="#2f6fdb" stroke="#ffffff" stroke-width="1"/>
<polyline points="336.0,846.0 352.0,846.0 384.0,833.0" fill="none" stroke="#2f6fdb" stroke-width="2.6" stroke-linejoin="round" stroke-linecap="round"/>
<circle cx="336.0" cy="846.0" r="3.6" fill="#2f6fdb" stroke="#ffffff" stroke-width="1"/>
<polyline points="896.0,694.0 880.0,694.0 848.0,681.0" fill="none" stroke="#3a3a3a" stroke-width="2.6" stroke-linejoin="round" stroke-linecap="round"/>
<circle cx="896.0" cy="694.0" r="3.6" fill="#3a3a3a" stroke="#ffffff" stroke-width="1"/>
<polyline points="336.0,872.0 352.0,872.0 384.0,833.0" fill="none" stroke="#3a3a3a" stroke-width="2.6" stroke-linejoin="round" stroke-linecap="round"/>
<circle cx="336.0" cy="872.0" r="3.6" fill="#3a3a3a" stroke="#ffffff" stroke-width="1"/>
<circle cx="599.0" cy="757.0" r="12.5" fill="#ffffff" stroke="#222" stroke-width="1.7"/>
<text x="599.0" y="761.5" font-family="'Segoe UI', 'Helvetica Neue', Arial, sans-serif" font-size="13" font-weight="bold" fill="#1f2328" text-anchor="middle">6</text>
<rect x="896.0" y="36.0" width="300.0" height="51.0" rx="6" ry="6" fill="#eef2f6" stroke="#4a4a4a" stroke-width="1.4"/>
<line x1="1046.0" y1="36.0" x2="1046.0" y2="87.0" stroke="#4a4a4a" stroke-width="1"/>
<text x="908.0" y="55.0" font-family="'Segoe UI', 'Helvetica Neue', Arial, sans-serif" font-size="14" font-weight="bold" fill="#1f2328" text-anchor="start">audiostickPlusLight</text>
<text x="908.0" y="72.0" font-family="'Segoe UI', 'Helvetica Neue', Arial, sans-serif" font-size="11" font-weight="normal" fill="#5b6571" text-anchor="start">плата v4</text>
<rect x="896.0" y="87.0" width="300.0" height="26.0" rx="0" ry="0" fill="#ffffff" stroke="#4a4a4a" stroke-width="1.4"/>
<rect x="908.0" y="93.0" width="20.0" height="14.0" rx="2" ry="2" fill="#dfe4e9" stroke="#5b6571" stroke-width="1"/>
<text x="938.0" y="104.0" font-family="'Segoe UI', 'Helvetica Neue', Arial, sans-serif" font-size="12" font-weight="bold" fill="#1f2328" text-anchor="start">USB</text>
<rect x="896.0" y="113.0" width="300.0" height="112.0" rx="0" ry="0" fill="#f6f8fa" stroke="#4a4a4a" stroke-width="1.4"/>
<line x1="980.0" y1="113.0" x2="980.0" y2="225.0" stroke="#4a4a4a" stroke-width="1"/>
<text x="906.0" y="134.0" font-family="'Segoe UI', 'Helvetica Neue', Arial, sans-serif" font-size="11" font-weight="bold" fill="#5b6571" text-anchor="start">3</text>
<text x="924.0" y="134.0" font-family="'Segoe UI', 'Helvetica Neue', Arial, sans-serif" font-size="12" font-weight="normal" fill="#1f2328" text-anchor="start">spk+</text>
<line x1="896.0" y1="143.0" x2="980.0" y2="143.0" stroke="#d7dce1" stroke-width="1"/>
<text x="906.0" y="160.0" font-family="'Segoe UI', 'Helvetica Neue', Arial, sans-serif" font-size="11" font-weight="bold" fill="#5b6571" text-anchor="start">2</text>
<text x="924.0" y="160.0" font-family="'Segoe UI', 'Helvetica Neue', Arial, sans-serif" font-size="12" font-weight="normal" fill="#1f2328" text-anchor="start">spk-</text>
<line x1="896.0" y1="169.0" x2="980.0" y2="169.0" stroke="#d7dce1" stroke-width="1"/>
<text x="906.0" y="186.0" font-family="'Segoe UI', 'Helvetica Neue', Arial, sans-serif" font-size="11" font-weight="bold" fill="#5b6571" text-anchor="start">1</text>
<text x="924.0" y="186.0" font-family="'Segoe UI', 'Helvetica Neue', Arial, sans-serif" font-size="12" font-weight="normal" fill="#1f2328" text-anchor="start">gnd</text>
<line x1="896.0" y1="195.0" x2="980.0" y2="195.0" stroke="#d7dce1" stroke-width="1"/>
<text x="906.0" y="212.0" font-family="'Segoe UI', 'Helvetica Neue', Arial, sans-serif" font-size="11" font-weight="bold" fill="#5b6571" text-anchor="start">0</text>
<text x="924.0" y="212.0" font-family="'Segoe UI', 'Helvetica Neue', Arial, sans-serif" font-size="12" font-weight="normal" fill="#1f2328" text-anchor="start">gnd</text>
<text x="1077.0" y="165.0" font-family="'Segoe UI', 'Helvetica Neue', Arial, sans-serif" font-size="13" font-weight="bold" fill="#1f2328" text-anchor="middle">soundMono</text>
<text x="1077.0" y="180.0" font-family="'Segoe UI', 'Helvetica Neue', Arial, sans-serif" font-size="11" font-weight="normal" fill="#5b6571" text-anchor="middle">mode: mp3Player</text>
<rect x="1174.0" y="113.0" width="22.0" height="112.0" rx="0" ry="0" fill="#e7ebef" stroke="#4a4a4a" stroke-width="1.4"/>
<text x="1189.0" y="169.0" font-family="'Segoe UI', 'Helvetica Neue', Arial, sans-serif" font-size="11" font-weight="normal" fill="#5b6571" text-anchor="middle" transform="rotate(-90 1189.0 169.0)">s_0</text>
<rect x="896.0" y="225.0" width="300.0" height="64.0" rx="0" ry="0" fill="#f6f8fa" stroke="#4a4a4a" stroke-width="1.4"/>
<line x1="980.0" y1="225.0" x2="980.0" y2="289.0" stroke="#4a4a4a" stroke-width="1"/>
<text x="906.0" y="261.0" font-family="'Segoe UI', 'Helvetica Neue', Arial, sans-serif" font-size="11" font-weight="bold" fill="#5b6571" text-anchor="start">0</text>
<text x="924.0" y="261.0" font-family="'Segoe UI', 'Helvetica Neue', Arial, sans-serif" font-size="12" font-weight="normal" fill="#1f2328" text-anchor="start">microSD</text>
<text x="1077.0" y="261.0" font-family="'Segoe UI', 'Helvetica Neue', Arial, sans-serif" font-size="13" font-weight="bold" fill="#1f2328" text-anchor="middle">SD_card</text>
<rect x="1174.0" y="225.0" width="22.0" height="64.0" rx="0" ry="0" fill="#e7ebef" stroke="#4a4a4a" stroke-width="1.4"/>
<text x="1189.0" y="257.0" font-family="'Segoe UI', 'Helvetica Neue', Arial, sans-serif" font-size="11" font-weight="normal" fill="#5b6571" text-anchor="middle" transform="rotate(-90 1189.0 257.0)">s_1</text>
<rect x="896.0" y="289.0" width="300.0" height="112.0" rx="0" ry="0" fill="#f6f8fa" stroke="#4a4a4a" stroke-width="1.4"/>
<line x1="980.0" y1="289.0" x2="980.0" y2="401.0" stroke="#4a4a4a" stroke-width="1"/>
<text x="906.0" y="310.0" font-family="'Segoe UI', 'Helvetica Neue', Arial, sans-serif" font-size="11" font-weight="bold" fill="#5b6571" text-anchor="start">3</text>
<text x="924.0" y="310.0" font-family="'Segoe UI', 'Helvetica Neue', Arial, sans-serif" font-size="12" font-weight="normal" fill="#1f2328" text-anchor="start">V+</text>
<line x1="896.0" y1="319.0" x2="980.0" y2="319.0" stroke="#d7dce1" stroke-width="1"/>
<text x="906.0" y="336.0" font-family="'Segoe UI', 'Helvetica Neue', Arial, sans-serif" font-size="11" font-weight="bold" fill="#5b6571" text-anchor="start">2</text>
<text x="924.0" y="336.0" font-family="'Segoe UI', 'Helvetica Neue', Arial, sans-serif" font-size="12" font-weight="normal" fill="#1f2328" text-anchor="start">sLed</text>
<line x1="896.0" y1="345.0" x2="980.0" y2="345.0" stroke="#d7dce1" stroke-width="1"/>
<text x="906.0" y="362.0" font-family="'Segoe UI', 'Helvetica Neue', Arial, sans-serif" font-size="11" font-weight="bold" fill="#5b6571" text-anchor="start">1</text>
<text x="924.0" y="362.0" font-family="'Segoe UI', 'Helvetica Neue', Arial, sans-serif" font-size="12" font-weight="normal" fill="#1f2328" text-anchor="start">Bt</text>
<line x1="896.0" y1="371.0" x2="980.0" y2="371.0" stroke="#d7dce1" stroke-width="1"/>
<text x="906.0" y="388.0" font-family="'Segoe UI', 'Helvetica Neue', Arial, sans-serif" font-size="11" font-weight="bold" fill="#5b6571" text-anchor="start">0</text>
<text x="924.0" y="388.0" font-family="'Segoe UI', 'Helvetica Neue', Arial, sans-serif" font-size="12" font-weight="normal" fill="#1f2328" text-anchor="start">gnd</text>
<text x="1077.0" y="349.0" font-family="'Segoe UI', 'Helvetica Neue', Arial, sans-serif" font-size="13" font-weight="bold" fill="#1f2328" text-anchor="middle">button_smartLed</text>
<rect x="1174.0" y="289.0" width="22.0" height="112.0" rx="0" ry="0" fill="#e7ebef" stroke="#4a4a4a" stroke-width="1.4"/>
<text x="1189.0" y="345.0" font-family="'Segoe UI', 'Helvetica Neue', Arial, sans-serif" font-size="11" font-weight="normal" fill="#5b6571" text-anchor="middle" transform="rotate(-90 1189.0 345.0)">s_2</text>
<rect x="760.0" y="289.0" width="136.0" height="112.0" rx="0" ry="0" fill="#fff7e6" stroke="#4a4a4a" stroke-width="1.4"/>
<line x1="830.0" y1="289.0" x2="830.0" y2="401.0" stroke="#4a4a4a" stroke-width="1"/>
<text x="768.0" y="310.0" font-family="'Segoe UI', 'Helvetica Neue', Arial, sans-serif" font-size="11" font-weight="bold" fill="#5b6571" text-anchor="start">3</text>
<text x="784.0" y="310.0" font-family="'Segoe UI', 'Helvetica Neue', Arial, sans-serif" font-size="12" font-weight="normal" fill="#1f2328" text-anchor="start">+5V</text>
<line x1="760.0" y1="319.0" x2="830.0" y2="319.0" stroke="#e6d9bd" stroke-width="1"/>
<text x="768.0" y="336.0" font-family="'Segoe UI', 'Helvetica Neue', Arial, sans-serif" font-size="11" font-weight="bold" fill="#5b6571" text-anchor="start">2</text>
<text x="784.0" y="336.0" font-family="'Segoe UI', 'Helvetica Neue', Arial, sans-serif" font-size="12" font-weight="normal" fill="#1f2328" text-anchor="start">sLed</text>
<line x1="760.0" y1="345.0" x2="830.0" y2="345.0" stroke="#e6d9bd" stroke-width="1"/>
<text x="768.0" y="362.0" font-family="'Segoe UI', 'Helvetica Neue', Arial, sans-serif" font-size="11" font-weight="bold" fill="#5b6571" text-anchor="start">1</text>
<text x="784.0" y="362.0" font-family="'Segoe UI', 'Helvetica Neue', Arial, sans-serif" font-size="12" font-weight="normal" fill="#1f2328" text-anchor="start">Bt</text>
<line x1="760.0" y1="371.0" x2="830.0" y2="371.0" stroke="#e6d9bd" stroke-width="1"/>
<text x="768.0" y="388.0" font-family="'Segoe UI', 'Helvetica Neue', Arial, sans-serif" font-size="11" font-weight="bold" fill="#5b6571" text-anchor="start">0</text>
<text x="784.0" y="388.0" font-family="'Segoe UI', 'Helvetica Neue', Arial, sans-serif" font-size="12" font-weight="normal" fill="#1f2328" text-anchor="start">gnd</text>
<text x="863.0" y="342.5" font-family="'Segoe UI', 'Helvetica Neue', Arial, sans-serif" font-size="10" font-weight="bold" fill="#6b4e00" text-anchor="middle">miniDC-DC</text>
<text x="863.0" y="355.5" font-family="'Segoe UI', 'Helvetica Neue', Arial, sans-serif" font-size="10" font-weight="bold" fill="#6b4e00" text-anchor="middle">201-038</text>
<rect x="896.0" y="401.0" width="300.0" height="112.0" rx="0" ry="0" fill="#f6f8fa" stroke="#4a4a4a" stroke-width="1.4"/>
<line x1="980.0" y1="401.0" x2="980.0" y2="513.0" stroke="#4a4a4a" stroke-width="1"/>
<text x="906.0" y="422.0" font-family="'Segoe UI', 'Helvetica Neue', Arial, sans-serif" font-size="11" font-weight="bold" fill="#5b6571" text-anchor="start">3</text>
<text x="924.0" y="422.0" font-family="'Segoe UI', 'Helvetica Neue', Arial, sans-serif" font-size="12" font-weight="normal" fill="#1f2328" text-anchor="start">led+</text>
<line x1="896.0" y1="431.0" x2="980.0" y2="431.0" stroke="#d7dce1" stroke-width="1"/>
<text x="906.0" y="448.0" font-family="'Segoe UI', 'Helvetica Neue', Arial, sans-serif" font-size="11" font-weight="bold" fill="#5b6571" text-anchor="start">2</text>
<text x="924.0" y="448.0" font-family="'Segoe UI', 'Helvetica Neue', Arial, sans-serif" font-size="12" font-weight="normal" fill="#1f2328" text-anchor="start">gnd</text>
<line x1="896.0" y1="457.0" x2="980.0" y2="457.0" stroke="#d7dce1" stroke-width="1"/>
<text x="906.0" y="474.0" font-family="'Segoe UI', 'Helvetica Neue', Arial, sans-serif" font-size="11" font-weight="bold" fill="#5b6571" text-anchor="start">1</text>
<text x="924.0" y="474.0" font-family="'Segoe UI', 'Helvetica Neue', Arial, sans-serif" font-size="12" font-weight="normal" fill="#1f2328" text-anchor="start">gnd</text>
<line x1="896.0" y1="483.0" x2="980.0" y2="483.0" stroke="#d7dce1" stroke-width="1"/>
<text x="906.0" y="500.0" font-family="'Segoe UI', 'Helvetica Neue', Arial, sans-serif" font-size="11" font-weight="bold" fill="#5b6571" text-anchor="start">0</text>
<text x="924.0" y="500.0" font-family="'Segoe UI', 'Helvetica Neue', Arial, sans-serif" font-size="12" font-weight="normal" fill="#1f2328" text-anchor="start">bt</text>
<text x="1077.0" y="461.0" font-family="'Segoe UI', 'Helvetica Neue', Arial, sans-serif" font-size="13" font-weight="bold" fill="#1f2328" text-anchor="middle">button_led</text>
<rect x="1174.0" y="401.0" width="22.0" height="112.0" rx="0" ry="0" fill="#e7ebef" stroke="#4a4a4a" stroke-width="1.4"/>
<text x="1189.0" y="457.0" font-family="'Segoe UI', 'Helvetica Neue', Arial, sans-serif" font-size="11" font-weight="normal" fill="#5b6571" text-anchor="middle" transform="rotate(-90 1189.0 457.0)">s_3</text>
<rect x="896.0" y="513.0" width="300.0" height="112.0" rx="0" ry="0" fill="#f6f8fa" stroke="#4a4a4a" stroke-width="1.4"/>
<line x1="980.0" y1="513.0" x2="980.0" y2="625.0" stroke="#4a4a4a" stroke-width="1"/>
<text x="906.0" y="534.0" font-family="'Segoe UI', 'Helvetica Neue', Arial, sans-serif" font-size="11" font-weight="bold" fill="#5b6571" text-anchor="start">3</text>
<text x="924.0" y="534.0" font-family="'Segoe UI', 'Helvetica Neue', Arial, sans-serif" font-size="12" font-weight="normal" fill="#1f2328" text-anchor="start">led+</text>
<line x1="896.0" y1="543.0" x2="980.0" y2="543.0" stroke="#d7dce1" stroke-width="1"/>
<text x="906.0" y="560.0" font-family="'Segoe UI', 'Helvetica Neue', Arial, sans-serif" font-size="11" font-weight="bold" fill="#5b6571" text-anchor="start">2</text>
<text x="924.0" y="560.0" font-family="'Segoe UI', 'Helvetica Neue', Arial, sans-serif" font-size="12" font-weight="normal" fill="#1f2328" text-anchor="start">gnd</text>
<line x1="896.0" y1="569.0" x2="980.0" y2="569.0" stroke="#d7dce1" stroke-width="1"/>
<text x="906.0" y="586.0" font-family="'Segoe UI', 'Helvetica Neue', Arial, sans-serif" font-size="11" font-weight="bold" fill="#5b6571" text-anchor="start">1</text>
<text x="924.0" y="586.0" font-family="'Segoe UI', 'Helvetica Neue', Arial, sans-serif" font-size="12" font-weight="normal" fill="#1f2328" text-anchor="start">gnd</text>
<line x1="896.0" y1="595.0" x2="980.0" y2="595.0" stroke="#d7dce1" stroke-width="1"/>
<text x="906.0" y="612.0" font-family="'Segoe UI', 'Helvetica Neue', Arial, sans-serif" font-size="11" font-weight="bold" fill="#5b6571" text-anchor="start">0</text>
<text x="924.0" y="612.0" font-family="'Segoe UI', 'Helvetica Neue', Arial, sans-serif" font-size="12" font-weight="normal" fill="#1f2328" text-anchor="start">bt</text>
<text x="1077.0" y="573.0" font-family="'Segoe UI', 'Helvetica Neue', Arial, sans-serif" font-size="13" font-weight="bold" fill="#1f2328" text-anchor="middle">button_led</text>
<rect x="1174.0" y="513.0" width="22.0" height="112.0" rx="0" ry="0" fill="#e7ebef" stroke="#4a4a4a" stroke-width="1.4"/>
<text x="1189.0" y="569.0" font-family="'Segoe UI', 'Helvetica Neue', Arial, sans-serif" font-size="11" font-weight="normal" fill="#5b6571" text-anchor="middle" transform="rotate(-90 1189.0 569.0)">s_4</text>
<rect x="896.0" y="625.0" width="300.0" height="112.0" rx="0" ry="0" fill="#f6f8fa" stroke="#4a4a4a" stroke-width="1.4"/>
<line x1="980.0" y1="625.0" x2="980.0" y2="737.0" stroke="#4a4a4a" stroke-width="1"/>
<text x="906.0" y="646.0" font-family="'Segoe UI', 'Helvetica Neue', Arial, sans-serif" font-size="11" font-weight="bold" fill="#5b6571" text-anchor="start">3</text>
<text x="924.0" y="646.0" font-family="'Segoe UI', 'Helvetica Neue', Arial, sans-serif" font-size="12" font-weight="normal" fill="#1f2328" text-anchor="start">led+</text>
<line x1="896.0" y1="655.0" x2="980.0" y2="655.0" stroke="#d7dce1" stroke-width="1"/>
<text x="906.0" y="672.0" font-family="'Segoe UI', 'Helvetica Neue', Arial, sans-serif" font-size="11" font-weight="bold" fill="#5b6571" text-anchor="start">2</text>
<text x="924.0" y="672.0" font-family="'Segoe UI', 'Helvetica Neue', Arial, sans-serif" font-size="12" font-weight="normal" fill="#1f2328" text-anchor="start">gnd</text>
<line x1="896.0" y1="681.0" x2="980.0" y2="681.0" stroke="#d7dce1" stroke-width="1"/>
<text x="906.0" y="698.0" font-family="'Segoe UI', 'Helvetica Neue', Arial, sans-serif" font-size="11" font-weight="bold" fill="#5b6571" text-anchor="start">1</text>
<text x="924.0" y="698.0" font-family="'Segoe UI', 'Helvetica Neue', Arial, sans-serif" font-size="12" font-weight="normal" fill="#1f2328" text-anchor="start">gnd</text>
<line x1="896.0" y1="707.0" x2="980.0" y2="707.0" stroke="#d7dce1" stroke-width="1"/>
<text x="906.0" y="724.0" font-family="'Segoe UI', 'Helvetica Neue', Arial, sans-serif" font-size="11" font-weight="bold" fill="#5b6571" text-anchor="start">0</text>
<text x="924.0" y="724.0" font-family="'Segoe UI', 'Helvetica Neue', Arial, sans-serif" font-size="12" font-weight="normal" fill="#1f2328" text-anchor="start">bt</text>
<text x="1077.0" y="685.0" font-family="'Segoe UI', 'Helvetica Neue', Arial, sans-serif" font-size="13" font-weight="bold" fill="#1f2328" text-anchor="middle">button_led</text>
<rect x="1174.0" y="625.0" width="22.0" height="112.0" rx="0" ry="0" fill="#e7ebef" stroke="#4a4a4a" stroke-width="1.4"/>
<text x="1189.0" y="681.0" font-family="'Segoe UI', 'Helvetica Neue', Arial, sans-serif" font-size="11" font-weight="normal" fill="#5b6571" text-anchor="middle" transform="rotate(-90 1189.0 681.0)">s_5</text>
<rect x="896.0" y="737.0" width="300.0" height="64.0" rx="0" ry="0" fill="#f0efe6" stroke="#4a4a4a" stroke-width="1.4"/>
<line x1="980.0" y1="737.0" x2="980.0" y2="801.0" stroke="#4a4a4a" stroke-width="1"/>
<text x="906.0" y="760.0" font-family="'Segoe UI', 'Helvetica Neue', Arial, sans-serif" font-size="11" font-weight="bold" fill="#5b6571" text-anchor="start">1</text>
<text x="924.0" y="760.0" font-family="'Segoe UI', 'Helvetica Neue', Arial, sans-serif" font-size="12" font-weight="normal" fill="#1f2328" text-anchor="start">+</text>
<line x1="896.0" y1="769.0" x2="980.0" y2="769.0" stroke="#d7dce1" stroke-width="1"/>
<text x="906.0" y="786.0" font-family="'Segoe UI', 'Helvetica Neue', Arial, sans-serif" font-size="11" font-weight="bold" fill="#5b6571" text-anchor="start">0</text>
<text x="924.0" y="786.0" font-family="'Segoe UI', 'Helvetica Neue', Arial, sans-serif" font-size="12" font-weight="normal" fill="#1f2328" text-anchor="start">-</text>
<text x="1077.0" y="773.0" font-family="'Segoe UI', 'Helvetica Neue', Arial, sans-serif" font-size="13" font-weight="bold" fill="#1f2328" text-anchor="middle">Power</text>
<rect x="896.0" y="823.0" width="300.0" height="111.0" rx="6" ry="6" fill="#ffffff" stroke="#4a4a4a" stroke-width="1.4"/>
<rect x="896.0" y="823.0" width="300.0" height="51.0" rx="6" ry="6" fill="#eef2f6" stroke="#4a4a4a" stroke-width="1.4"/>
<text x="908.0" y="840.0" font-family="'Segoe UI', 'Helvetica Neue', Arial, sans-serif" font-size="13" font-weight="bold" fill="#1f2328" text-anchor="start">Блок питания 12 В</text>
<text x="908.0" y="854.0" font-family="'Segoe UI', 'Helvetica Neue', Arial, sans-serif" font-size="13" font-weight="bold" fill="#1f2328" text-anchor="start">MW RS-25-12, 201-007</text>
<line x1="980.0" y1="874.0" x2="980.0" y2="934.0" stroke="#4a4a4a" stroke-width="1"/>
<text x="908.0" y="891.0" font-family="'Segoe UI', 'Helvetica Neue', Arial, sans-serif" font-size="12" font-weight="normal" fill="#1f2328" text-anchor="start">+12</text>
<line x1="896.0" y1="900.0" x2="980.0" y2="900.0" stroke="#d7dce1" stroke-width="1"/>
<text x="908.0" y="917.0" font-family="'Segoe UI', 'Helvetica Neue', Arial, sans-serif" font-size="12" font-weight="normal" fill="#1f2328" text-anchor="start">gnd</text>
<rect x="36.0" y="36.0" width="300.0" height="111.0" rx="6" ry="6" fill="#ffffff" stroke="#4a4a4a" stroke-width="1.4"/>
<rect x="36.0" y="36.0" width="216.0" height="51.0" rx="6" ry="6" fill="#eef2f6" stroke="#4a4a4a" stroke-width="1.4"/>
<rect x="252.0" y="36.0" width="84.0" height="51.0" rx="6" ry="6" fill="#ffffff" stroke="#4a4a4a" stroke-width="1.4"/>
<text x="46.0" y="52.0" font-family="'Segoe UI', 'Helvetica Neue', Arial, sans-serif" font-size="12" font-weight="bold" fill="#1f2328" text-anchor="start">Динамик</text>
<text x="46.0" y="65.0" font-family="'Segoe UI', 'Helvetica Neue', Arial, sans-serif" font-size="12" font-weight="bold" fill="#1f2328" text-anchor="start">100-001</text>
<line x1="252.0" y1="87.0" x2="252.0" y2="147.0" stroke="#4a4a4a" stroke-width="1"/>
<text x="324.0" y="104.0" font-family="'Segoe UI', 'Helvetica Neue', Arial, sans-serif" font-size="12" font-weight="normal" fill="#1f2328" text-anchor="end">+</text>
<line x1="252.0" y1="113.0" x2="336.0" y2="113.0" stroke="#d7dce1" stroke-width="1"/>
<text x="324.0" y="130.0" font-family="'Segoe UI', 'Helvetica Neue', Arial, sans-serif" font-size="12" font-weight="normal" fill="#1f2328" text-anchor="end">-</text>
<rect x="36.0" y="169.0" width="300.0" height="169.0" rx="6" ry="6" fill="#ffffff" stroke="#4a4a4a" stroke-width="1.4"/>
<rect x="36.0" y="169.0" width="216.0" height="57.0" rx="6" ry="6" fill="#eef2f6" stroke="#4a4a4a" stroke-width="1.4"/>
<rect x="252.0" y="169.0" width="84.0" height="57.0" rx="6" ry="6" fill="#ffffff" stroke="#4a4a4a" stroke-width="1.4"/>
<text x="46.0" y="185.0" font-family="'Segoe UI', 'Helvetica Neue', Arial, sans-serif" font-size="12" font-weight="bold" fill="#1f2328" text-anchor="start">Магнитная база с герконом</text>
<text x="46.0" y="198.0" font-family="'Segoe UI', 'Helvetica Neue', Arial, sans-serif" font-size="12" font-weight="bold" fill="#1f2328" text-anchor="start">и подсветкой</text>
<text x="46.0" y="211.0" font-family="'Segoe UI', 'Helvetica Neue', Arial, sans-serif" font-size="12" font-weight="bold" fill="#1f2328" text-anchor="start">100-004 + 300-006</text>
<line x1="252.0" y1="226.0" x2="252.0" y2="338.0" stroke="#4a4a4a" stroke-width="1"/>
<text x="324.0" y="243.0" font-family="'Segoe UI', 'Helvetica Neue', Arial, sans-serif" font-size="12" font-weight="normal" fill="#1f2328" text-anchor="end">+V</text>
<line x1="252.0" y1="252.0" x2="336.0" y2="252.0" stroke="#d7dce1" stroke-width="1"/>
<text x="324.0" y="269.0" font-family="'Segoe UI', 'Helvetica Neue', Arial, sans-serif" font-size="12" font-weight="normal" fill="#1f2328" text-anchor="end">DIN</text>
<line x1="252.0" y1="278.0" x2="336.0" y2="278.0" stroke="#d7dce1" stroke-width="1"/>
<text x="324.0" y="295.0" font-family="'Segoe UI', 'Helvetica Neue', Arial, sans-serif" font-size="12" font-weight="normal" fill="#1f2328" text-anchor="end">Bt</text>
<line x1="252.0" y1="304.0" x2="336.0" y2="304.0" stroke="#d7dce1" stroke-width="1"/>
<text x="324.0" y="321.0" font-family="'Segoe UI', 'Helvetica Neue', Arial, sans-serif" font-size="12" font-weight="normal" fill="#1f2328" text-anchor="end">gnd</text>
<rect x="36.0" y="360.0" width="300.0" height="163.0" rx="6" ry="6" fill="#ffffff" stroke="#4a4a4a" stroke-width="1.4"/>
<rect x="36.0" y="360.0" width="216.0" height="51.0" rx="6" ry="6" fill="#eef2f6" stroke="#4a4a4a" stroke-width="1.4"/>
<rect x="252.0" y="360.0" width="84.0" height="51.0" rx="6" ry="6" fill="#ffffff" stroke="#4a4a4a" stroke-width="1.4"/>
<text x="46.0" y="376.0" font-family="'Segoe UI', 'Helvetica Neue', Arial, sans-serif" font-size="12" font-weight="bold" fill="#1f2328" text-anchor="start">Кнопка с подсветкой</text>
<text x="46.0" y="389.0" font-family="'Segoe UI', 'Helvetica Neue', Arial, sans-serif" font-size="12" font-weight="bold" fill="#1f2328" text-anchor="start">300-001</text>
<line x1="252.0" y1="411.0" x2="252.0" y2="523.0" stroke="#4a4a4a" stroke-width="1"/>
<text x="324.0" y="428.0" font-family="'Segoe UI', 'Helvetica Neue', Arial, sans-serif" font-size="12" font-weight="normal" fill="#1f2328" text-anchor="end">led+</text>
<line x1="252.0" y1="437.0" x2="336.0" y2="437.0" stroke="#d7dce1" stroke-width="1"/>
<text x="324.0" y="454.0" font-family="'Segoe UI', 'Helvetica Neue', Arial, sans-serif" font-size="12" font-weight="normal" fill="#1f2328" text-anchor="end">led-</text>
<line x1="252.0" y1="463.0" x2="336.0" y2="463.0" stroke="#d7dce1" stroke-width="1"/>
<text x="324.0" y="480.0" font-family="'Segoe UI', 'Helvetica Neue', Arial, sans-serif" font-size="12" font-weight="normal" fill="#1f2328" text-anchor="end">bt</text>
<line x1="252.0" y1="489.0" x2="336.0" y2="489.0" stroke="#d7dce1" stroke-width="1"/>
<text x="324.0" y="506.0" font-family="'Segoe UI', 'Helvetica Neue', Arial, sans-serif" font-size="12" font-weight="normal" fill="#1f2328" text-anchor="end">bt</text>
<rect x="36.0" y="545.0" width="300.0" height="163.0" rx="6" ry="6" fill="#ffffff" stroke="#4a4a4a" stroke-width="1.4"/>
<rect x="36.0" y="545.0" width="216.0" height="51.0" rx="6" ry="6" fill="#eef2f6" stroke="#4a4a4a" stroke-width="1.4"/>
<rect x="252.0" y="545.0" width="84.0" height="51.0" rx="6" ry="6" fill="#ffffff" stroke="#4a4a4a" stroke-width="1.4"/>
<text x="46.0" y="561.0" font-family="'Segoe UI', 'Helvetica Neue', Arial, sans-serif" font-size="12" font-weight="bold" fill="#1f2328" text-anchor="start">Кнопка с подсветкой</text>
<text x="46.0" y="574.0" font-family="'Segoe UI', 'Helvetica Neue', Arial, sans-serif" font-size="12" font-weight="bold" fill="#1f2328" text-anchor="start">300-001</text>
<line x1="252.0" y1="596.0" x2="252.0" y2="708.0" stroke="#4a4a4a" stroke-width="1"/>
<text x="324.0" y="613.0" font-family="'Segoe UI', 'Helvetica Neue', Arial, sans-serif" font-size="12" font-weight="normal" fill="#1f2328" text-anchor="end">led+</text>
<line x1="252.0" y1="622.0" x2="336.0" y2="622.0" stroke="#d7dce1" stroke-width="1"/>
<text x="324.0" y="639.0" font-family="'Segoe UI', 'Helvetica Neue', Arial, sans-serif" font-size="12" font-weight="normal" fill="#1f2328" text-anchor="end">led-</text>
<line x1="252.0" y1="648.0" x2="336.0" y2="648.0" stroke="#d7dce1" stroke-width="1"/>
<text x="324.0" y="665.0" font-family="'Segoe UI', 'Helvetica Neue', Arial, sans-serif" font-size="12" font-weight="normal" fill="#1f2328" text-anchor="end">bt</text>
<line x1="252.0" y1="674.0" x2="336.0" y2="674.0" stroke="#d7dce1" stroke-width="1"/>
<text x="324.0" y="691.0" font-family="'Segoe UI', 'Helvetica Neue', Arial, sans-serif" font-size="12" font-weight="normal" fill="#1f2328" text-anchor="end">bt</text>
<rect x="36.0" y="730.0" width="300.0" height="163.0" rx="6" ry="6" fill="#ffffff" stroke="#4a4a4a" stroke-width="1.4"/>
<rect x="36.0" y="730.0" width="216.0" height="51.0" rx="6" ry="6" fill="#eef2f6" stroke="#4a4a4a" stroke-width="1.4"/>
<rect x="252.0" y="730.0" width="84.0" height="51.0" rx="6" ry="6" fill="#ffffff" stroke="#4a4a4a" stroke-width="1.4"/>
<text x="46.0" y="746.0" font-family="'Segoe UI', 'Helvetica Neue', Arial, sans-serif" font-size="12" font-weight="bold" fill="#1f2328" text-anchor="start">Кнопка с подсветкой</text>
<text x="46.0" y="759.0" font-family="'Segoe UI', 'Helvetica Neue', Arial, sans-serif" font-size="12" font-weight="bold" fill="#1f2328" text-anchor="start">300-001</text>
<line x1="252.0" y1="781.0" x2="252.0" y2="893.0" stroke="#4a4a4a" stroke-width="1"/>
<text x="324.0" y="798.0" font-family="'Segoe UI', 'Helvetica Neue', Arial, sans-serif" font-size="12" font-weight="normal" fill="#1f2328" text-anchor="end">led+</text>
<line x1="252.0" y1="807.0" x2="336.0" y2="807.0" stroke="#d7dce1" stroke-width="1"/>
<text x="324.0" y="824.0" font-family="'Segoe UI', 'Helvetica Neue', Arial, sans-serif" font-size="12" font-weight="normal" fill="#1f2328" text-anchor="end">led-</text>
<line x1="252.0" y1="833.0" x2="336.0" y2="833.0" stroke="#d7dce1" stroke-width="1"/>
<text x="324.0" y="850.0" font-family="'Segoe UI', 'Helvetica Neue', Arial, sans-serif" font-size="12" font-weight="normal" fill="#1f2328" text-anchor="end">bt</text>
<line x1="252.0" y1="859.0" x2="336.0" y2="859.0" stroke="#d7dce1" stroke-width="1"/>
<text x="324.0" y="876.0" font-family="'Segoe UI', 'Helvetica Neue', Arial, sans-serif" font-size="12" font-weight="normal" fill="#1f2328" text-anchor="end">bt</text>
<text x="36.0" y="980.0" font-family="'Segoe UI', 'Helvetica Neue', Arial, sans-serif" font-size="12" font-weight="bold" fill="#1f2328" text-anchor="start">Жгуты:</text>
<circle cx="109.0" cy="976.0" r="9" fill="#ffffff" stroke="#222" stroke-width="1.5"/>
<text x="109.0" y="980.0" font-family="'Segoe UI', 'Helvetica Neue', Arial, sans-serif" font-size="11" font-weight="bold" fill="#1f2328" text-anchor="middle">1</text>
<text x="124.0" y="980.0" font-family="'Segoe UI', 'Helvetica Neue', Arial, sans-serif" font-size="11" font-weight="normal" fill="#5b6571" text-anchor="start">питание контроллера</text>
<circle cx="295.8" cy="976.0" r="9" fill="#ffffff" stroke="#222" stroke-width="1.5"/>
<text x="295.8" y="980.0" font-family="'Segoe UI', 'Helvetica Neue', Arial, sans-serif" font-size="11" font-weight="bold" fill="#1f2328" text-anchor="middle">2</text>
<text x="310.8" y="980.0" font-family="'Segoe UI', 'Helvetica Neue', Arial, sans-serif" font-size="11" font-weight="normal" fill="#5b6571" text-anchor="start">динамик (s_0)</text>
<circle cx="439.4" cy="976.0" r="9" fill="#ffffff" stroke="#222" stroke-width="1.5"/>
<text x="439.4" y="980.0" font-family="'Segoe UI', 'Helvetica Neue', Arial, sans-serif" font-size="11" font-weight="bold" fill="#1f2328" text-anchor="middle">3</text>
<text x="454.4" y="980.0" font-family="'Segoe UI', 'Helvetica Neue', Arial, sans-serif" font-size="11" font-weight="normal" fill="#5b6571" text-anchor="start">база с подсветкой (s_2)</text>
<circle cx="655.0" cy="976.0" r="9" fill="#ffffff" stroke="#222" stroke-width="1.5"/>
<text x="655.0" y="980.0" font-family="'Segoe UI', 'Helvetica Neue', Arial, sans-serif" font-size="11" font-weight="bold" fill="#1f2328" text-anchor="middle">4</text>
<text x="670.0" y="980.0" font-family="'Segoe UI', 'Helvetica Neue', Arial, sans-serif" font-size="11" font-weight="normal" fill="#5b6571" text-anchor="start">кнопка с подсветкой (s_3)</text>
<circle cx="885.0" cy="976.0" r="9" fill="#ffffff" stroke="#222" stroke-width="1.5"/>
<text x="885.0" y="980.0" font-family="'Segoe UI', 'Helvetica Neue', Arial, sans-serif" font-size="11" font-weight="bold" fill="#1f2328" text-anchor="middle">5</text>
<text x="900.0" y="980.0" font-family="'Segoe UI', 'Helvetica Neue', Arial, sans-serif" font-size="11" font-weight="normal" fill="#5b6571" text-anchor="start">кнопка с подсветкой (s_4)</text>
<circle cx="109.0" cy="1000.0" r="9" fill="#ffffff" stroke="#222" stroke-width="1.5"/>
<text x="109.0" y="1004.0" font-family="'Segoe UI', 'Helvetica Neue', Arial, sans-serif" font-size="11" font-weight="bold" fill="#1f2328" text-anchor="middle">6</text>
<text x="124.0" y="1004.0" font-family="'Segoe UI', 'Helvetica Neue', Arial, sans-serif" font-size="11" font-weight="normal" fill="#5b6571" text-anchor="start">кнопка с подсветкой (s_5)</text>
</svg>
